<svg width="20" height="20" viewBox="0 0 20 20" fill="none" xmlns="http://www.w3.org/2000/svg">
<path d="M13.3346 13.3327V15.666C13.3346 16.5994 13.3346 17.0661 13.153 17.4227C12.9932 17.7363 12.7382 17.9912 12.4246 18.151C12.0681 18.3327 11.6014 18.3327 10.668 18.3327H4.33464C3.40121 18.3327 2.9345 18.3327 2.57798 18.151C2.26438 17.9912 2.00941 17.7363 1.84962 17.4227C1.66797 17.0661 1.66797 16.5994 1.66797 15.666V9.33268C1.66797 8.39926 1.66797 7.93255 1.84962 7.57603C2.00941 7.26243 2.26438 7.00746 2.57798 6.84767C2.9345 6.66602 3.40121 6.66602 4.33464 6.66602H6.66797M9.33464 13.3327H15.668C16.6014 13.3327 17.0681 13.3327 17.4246 13.151C17.7382 12.9912 17.9932 12.7363 18.153 12.4227C18.3346 12.0661 18.3346 11.5994 18.3346 10.666V4.33268C18.3346 3.39926 18.3346 2.93255 18.153 2.57603C17.9932 2.26243 17.7382 2.00746 17.4246 1.84767C17.0681 1.66602 16.6014 1.66602 15.668 1.66602H9.33464C8.40121 1.66602 7.9345 1.66602 7.57798 1.84767C7.26438 2.00746 7.00941 2.26243 6.84962 2.57603C6.66797 2.93255 6.66797 3.39926 6.66797 4.33268V10.666C6.66797 11.5994 6.66797 12.0661 6.84962 12.4227C7.00941 12.7363 7.26438 12.9912 7.57798 13.151C7.9345 13.3327 8.40121 13.3327 9.33464 13.3327Z" stroke="white" stroke-width="1.5" stroke-linecap="round" stroke-linejoin="round"/>
</svg>
